<?xml version="1.0" standalone="no"?>
<!DOCTYPE svg PUBLIC "-//W3C//DTD SVG 20010904//EN"
 "http://www.w3.org/TR/2001/REC-SVG-20010904/DTD/svg10.dtd">
<svg version="1.0" xmlns="http://www.w3.org/2000/svg"
 width="512.000000pt" height="512.000000pt" viewBox="0 0 512.000000 512.000000"
 preserveAspectRatio="xMidYMid meet">
<metadata>
Created by potrace 1.11, written by Peter Selinger 2001-2013
</metadata>
<g transform="translate(0.000000,512.000000) scale(0.100000,-0.100000)"
fill="#000000" stroke="none">
<path d="M1475 4590 c-69 -15 -79 -18 -120 -33 -98 -37 -177 -88 -255 -167
-79 -79 -129 -161 -169 -275 l-35 -100 -1 -1050 c-2 -1128 -2 -1119 50 -1248
80 -198 261 -365 456 -417 24 -7 53 -15 64 -18 11 -4 497 -7 1080 -8 1020 -2
1063 -2 1135 17 277 72 473 273 530 544 15 72 17 179 15 1130 -2 1021 -3 1052
-22 1115 -73 236 -236 406 -468 487 l-80 28 -1070 2 c-588 0 -1088 -3 -1110
-7z"/>
<path d="M434 910 c-52 -21 -77 -86 -54 -144 15 -40 39 -48 237 -81 57 -10 66
-104 11 -124 -32 -12 -176 -5 -193 9 -8 7 -15 21 -15 32 0 31 -19 58 -35 52
-38 -15 -5 -112 44 -131 39 -14 176 -16 217 -3 73 24 87 148 21 189 -15 10
-169 43 -229 50 -13 2 -25 57 -17 79 12 31 42 40 132 36 77 -3 107 -14 107
-40 0 -30 20 -63 35 -58 32 13 8 112 -32 129 -26 11 -204 15 -229 5z"/>
<path d="M2712 912 c-9 -3 -12 -54 -12 -197 0 -175 2 -193 18 -197 34 -9 225
0 247 12 36 19 53 59 49 119 -2 38 -9 60 -24 76 -18 19 -20 27 -11 43 12 23
14 71 5 97 -12 31 -63 47 -163 49 -53 1 -102 1 -109 -2z m225 -67 c38 -53 0
-86 -99 -88 -40 0 -78 2 -84 6 -8 5 -12 87 -5 105 0 2 40 1 88 -1 69 -3 89 -8
100 -22z m19 -152 c7 -10 14 -37 14 -60 0 -59 -21 -71 -135 -72 l-90 -2 0 73
-1 73 51 5 c86 9 146 2 161 -17z"/>
<path d="M3117 913 c-4 -3 -7 -85 -7 -182 1 -195 5 -212 59 -213 17 -1 34 2
37 5 12 12 -6 37 -26 37 -11 0 -21 3 -21 8 -1 4 -2 79 -3 167 -1 88 -5 166 -9
173 -9 13 -20 15 -30 5z"/>
<path d="M4134 908 c-14 -18 -10 -376 3 -389 21 -21 33 3 33 66 0 35 3 66 8
69 4 2 27 -14 51 -35 84 -77 130 -111 141 -104 23 14 6 36 -70 97 -44 35 -80
65 -80 68 1 3 27 25 59 50 32 25 58 50 58 57 0 29 -31 18 -94 -33 l-68 -56 -5
108 c-5 104 -15 132 -36 102z"/>
<path d="M880 800 c-78 -14 -94 -40 -93 -148 0 -115 29 -135 189 -136 79 -1
107 3 118 14 18 18 27 62 16 80 -12 19 -38 5 -42 -22 -3 -22 -7 -23 -98 -25
-114 -3 -140 9 -140 62 0 21 5 35 13 36 6 0 73 1 148 1 l135 1 -6 41 c-10 59
-18 73 -48 85 -33 13 -144 20 -192 11z m186 -61 c10 -11 15 -21 12 -24 -8 -8
-238 -8 -246 0 -4 4 4 16 17 26 34 28 191 26 217 -2z"/>
<path d="M1264 794 c-43 -15 -40 -12 -57 -55 -15 -39 -15 -131 1 -171 18 -44
118 -62 270 -49 17 1 41 59 34 83 -7 26 -35 18 -42 -12 -6 -25 -8 -25 -104
-25 -117 0 -127 8 -125 95 2 92 11 98 126 97 95 -2 97 -3 103 -27 6 -26 39
-41 41 -18 3 33 -4 64 -16 77 -18 18 -182 22 -231 5z"/>
<path d="M1605 800 c-10 -17 -6 -196 5 -225 16 -43 52 -58 143 -58 48 0 93 6
106 13 20 10 25 10 33 -4 9 -16 37 -22 39 -8 5 30 3 275 -2 284 -4 6 -14 8
-23 5 -13 -5 -16 -23 -16 -98 0 -88 -1 -92 -30 -119 -28 -26 -37 -28 -105 -28
-107 0 -109 3 -110 134 -1 92 -3 109 -17 112 -9 2 -19 -2 -23 -8z"/>
<path d="M2037 803 c-4 -3 -7 -69 -7 -145 0 -116 3 -140 15 -145 25 -9 29 3
31 90 2 110 1 103 29 132 20 19 36 25 69 25 32 0 46 5 50 17 4 9 1 20 -6 24
-15 10 -93 2 -118 -11 -25 -13 -30 -13 -30 5 0 15 -21 21 -33 8z"/>
<path d="M2331 789 c-46 -20 -61 -56 -57 -139 4 -77 13 -98 49 -117 41 -21
210 -26 248 -7 26 13 38 43 31 77 -5 26 -35 17 -42 -13 -6 -25 -7 -25 -113
-25 -120 0 -129 5 -125 64 l3 35 140 0 140 1 3 33 c4 40 -19 79 -56 94 -47 18
-178 17 -221 -3z m225 -53 c7 -11 12 -21 10 -24 -6 -6 -236 -5 -242 1 -10 10
9 36 29 41 12 2 59 3 105 3 70 -2 86 -5 98 -21z"/>
<path d="M3383 787 c-29 -12 -53 -25 -53 -29 0 -5 3 -7 8 -6 4 1 39 -6 79 -15
68 -16 75 -16 115 0 93 37 94 38 14 56 -89 21 -98 20 -163 -6z"/>
<path d="M3820 800 c-74 -13 -98 -48 -98 -140 0 -114 32 -140 172 -144 117 -4
146 9 146 67 0 16 -7 30 -16 34 -18 7 -35 -13 -27 -33 7 -19 -35 -27 -127 -22
-58 2 -84 7 -90 18 -5 8 -10 45 -10 82 0 89 12 98 132 98 51 0 89 -4 89 -10 1
-5 2 -14 3 -19 3 -22 25 -34 39 -23 18 15 11 56 -15 79 -20 18 -125 25 -198
13z"/>
<path d="M4485 798 c-16 -4 -36 -15 -42 -25 -20 -26 -16 -80 7 -103 24 -24 14
-22 125 -25 50 -2 96 -4 103 -4 18 -1 31 -43 20 -64 -8 -15 -22 -17 -116 -15
-104 3 -107 4 -108 26 -2 29 -9 36 -29 29 -19 -8 -19 -56 0 -81 13 -17 29 -20
122 -21 158 -2 198 24 178 115 -10 45 -44 58 -153 58 -110 0 -137 14 -109 60
9 13 216 18 218 5 4 -46 12 -58 34 -50 22 9 19 60 -5 82 -17 16 -39 19 -118
20 -53 1 -110 -2 -127 -7z"/>
<path d="M3553 727 c-49 -20 -53 -24 -54 -57 0 -19 -2 -61 -4 -92 -2 -32 -2
-58 1 -58 2 0 33 11 68 26 l63 25 2 90 c2 101 5 99 -76 66z"/>
<path d="M3309 703 c-2 -97 -1 -145 2 -148 2 -2 39 -12 82 -23 l78 -20 -3 95
-3 96 -75 18 c-41 10 -76 18 -77 19 -2 0 -3 -17 -4 -37z"/>
</g>
</svg>
